  0
SECTION
  2
HEADER
  9
$EXTMIN
 10
436.182
 20
442.531
  9
$EXTMAX
 10
541.718
 20
508.699
  9
$LIMMIN
 10
436.182
 20
442.531
  9
$LIMMAX
 10
541.718
 20
508.699
  0
ENDSEC
  0
SECTION
  2
TABLES
  0
TABLE
  2
LAYER
 70
    18
  0
LAYER
  2
0
 70
    64
 62
     7
  6
CONTINUOUS
  0
LAYER
  2
_BOARD
 70
    64
 62
    254
  6
CONTINUOUS
  0
LAYER
  2
_DRILL
 70
    64
 62
    251
  6
CONTINUOUS
  0
ENDTAB
  0
ENDSEC
  0
SECTION
  2
BLOCKS
  0
BLOCK
  8
0
  2
_HOLE
 70
    64
 10
0.000
 20
0.000
  0
CIRCLE
  8
0
 10
0.000
 20
0.000
 40
0.500
  0
ENDBLK
  8
0
  0
ENDSEC
  0
SECTION
  2
ENTITIES
  0
POLYLINE
  8
_BOARD
 66
     1
 62
     3
 10
0.000
 20
0.000
 70
     1
 40
0.000
 41
0.000
  0
VERTEX
  8
_BOARD
 10
440.000
 20
445.000
 40
0.000
 41
0.000
  0
VERTEX
  8
_BOARD
 10
540.000
 20
445.000
  0
VERTEX
  8
_BOARD
 10
540.000
 20
445.000
 40
0.000
 41
0.000
  0
VERTEX
  8
_BOARD
 10
540.000
 20
505.000
  0
VERTEX
  8
_BOARD
 10
540.000
 20
505.000
 40
0.000
 41
0.000
  0
VERTEX
  8
_BOARD
 10
440.000
 20
505.000
  0
VERTEX
  8
_BOARD
 10
440.000
 20
505.000
 40
0.000
 41
0.000
  0
VERTEX
  8
_BOARD
 10
440.000
 20
445.000
 40
0.000
 41
0.000
  0
VERTEX
  8
_BOARD
 10
440.000
 20
445.000
  0
SEQEND
  8
_BOARD
  0
INSERT
  8
_DRILL
  2
_HOLE
 10
457.200
 20
481.330
 41
0.610
 42
0.610
  0
INSERT
  8
_DRILL
  2
_HOLE
 10
451.485
 20
481.330
 41
0.610
 42
0.610
  0
INSERT
  8
_DRILL
  2
_HOLE
 10
496.570
 20
458.470
 41
0.610
 42
0.610
  0
INSERT
  8
_DRILL
  2
_HOLE
 10
457.200
 20
488.950
 41
0.610
 42
0.610
  0
INSERT
  8
_DRILL
  2
_HOLE
 10
515.213
 20
482.437
 41
0.610
 42
0.610
  0
INSERT
  8
_DRILL
  2
_HOLE
 10
516.617
 20
499.252
 41
0.610
 42
0.610
  0
INSERT
  8
_DRILL
  2
_HOLE
 10
501.205
 20
492.256
 41
0.610
 42
0.610
  0
INSERT
  8
_DRILL
  2
_HOLE
 10
511.007
 20
478.255
 41
0.610
 42
0.610
  0
INSERT
  8
_DRILL
  2
_HOLE
 10
510.540
 20
470.535
 41
0.610
 42
0.610
  0
INSERT
  8
_DRILL
  2
_HOLE
 10
455.930
 20
501.015
 41
0.610
 42
0.610
  0
INSERT
  8
_DRILL
  2
_HOLE
 10
522.605
 20
448.310
 41
0.610
 42
0.610
  0
INSERT
  8
_DRILL
  2
_HOLE
 10
523.875
 20
461.645
 41
0.610
 42
0.610
  0
INSERT
  8
_DRILL
  2
_HOLE
 10
457.200
 20
484.505
 41
0.610
 42
0.610
  0
INSERT
  8
_DRILL
  2
_HOLE
 10
490.220
 20
450.215
 41
0.610
 42
0.610
  0
INSERT
  8
_DRILL
  2
_HOLE
 10
490.220
 20
459.740
 41
0.610
 42
0.610
  0
INSERT
  8
_DRILL
  2
_HOLE
 10
483.235
 20
485.140
 41
0.610
 42
0.610
  0
INSERT
  8
_DRILL
  2
_HOLE
 10
504.000
 20
486.651
 41
0.610
 42
0.610
  0
INSERT
  8
_DRILL
  2
_HOLE
 10
527.800
 20
489.443
 41
0.610
 42
0.610
  0
INSERT
  8
_DRILL
  2
_HOLE
 10
494.030
 20
467.360
 41
0.889
 42
0.889
  0
INSERT
  8
_DRILL
  2
_HOLE
 10
491.490
 20
467.360
 41
0.889
 42
0.889
  0
INSERT
  8
_DRILL
  2
_HOLE
 10
486.410
 20
467.360
 41
0.889
 42
0.889
  0
INSERT
  8
_DRILL
  2
_HOLE
 10
483.870
 20
467.360
 41
0.889
 42
0.889
  0
INSERT
  8
_DRILL
  2
_HOLE
 10
481.330
 20
467.360
 41
0.889
 42
0.889
  0
INSERT
  8
_DRILL
  2
_HOLE
 10
478.790
 20
467.360
 41
0.889
 42
0.889
  0
INSERT
  8
_DRILL
  2
_HOLE
 10
476.250
 20
467.360
 41
0.889
 42
0.889
  0
INSERT
  8
_DRILL
  2
_HOLE
 10
453.390
 20
446.886
 41
0.889
 42
0.889
  0
INSERT
  8
_DRILL
  2
_HOLE
 10
450.850
 20
446.886
 41
0.889
 42
0.889
  0
INSERT
  8
_DRILL
  2
_HOLE
 10
457.200
 20
463.714
 41
0.889
 42
0.889
  0
INSERT
  8
_DRILL
  2
_HOLE
 10
457.200
 20
466.254
 41
0.889
 42
0.889
  0
INSERT
  8
_DRILL
  2
_HOLE
 10
457.200
 20
468.794
 41
0.889
 42
0.889
  0
INSERT
  8
_DRILL
  2
_HOLE
 10
447.675
 20
479.425
 41
0.889
 42
0.889
  0
INSERT
  8
_DRILL
  2
_HOLE
 10
447.675
 20
476.885
 41
0.889
 42
0.889
  0
INSERT
  8
_DRILL
  2
_HOLE
 10
447.675
 20
474.345
 41
0.889
 42
0.889
  0
INSERT
  8
_DRILL
  2
_HOLE
 10
447.675
 20
471.805
 41
0.889
 42
0.889
  0
INSERT
  8
_DRILL
  2
_HOLE
 10
447.040
 20
457.835
 41
0.889
 42
0.889
  0
INSERT
  8
_DRILL
  2
_HOLE
 10
447.040
 20
455.295
 41
0.889
 42
0.889
  0
INSERT
  8
_DRILL
  2
_HOLE
 10
447.040
 20
452.755
 41
0.889
 42
0.889
  0
INSERT
  8
_DRILL
  2
_HOLE
 10
441.960
 20
459.740
 41
0.889
 42
0.889
  0
INSERT
  8
_DRILL
  2
_HOLE
 10
441.960
 20
457.200
 41
0.889
 42
0.889
  0
INSERT
  8
_DRILL
  2
_HOLE
 10
449.580
 20
451.875
 41
0.800
 42
0.800
  0
INSERT
  8
_DRILL
  2
_HOLE
 10
449.580
 20
460.375
 41
0.800
 42
0.800
  0
INSERT
  8
_DRILL
  2
_HOLE
 10
444.500
 20
463.795
 41
0.800
 42
0.800
  0
INSERT
  8
_DRILL
  2
_HOLE
 10
444.500
 20
455.295
 41
0.800
 42
0.800
  0
INSERT
  8
_DRILL
  2
_HOLE
 10
494.030
 20
469.900
 41
0.889
 42
0.889
  0
INSERT
  8
_DRILL
  2
_HOLE
 10
491.490
 20
469.900
 41
0.889
 42
0.889
  0
INSERT
  8
_DRILL
  2
_HOLE
 10
496.570
 20
467.360
 41
0.889
 42
0.889
  0
INSERT
  8
_DRILL
  2
_HOLE
 10
496.570
 20
469.900
 41
0.889
 42
0.889
  0
INSERT
  8
_DRILL
  2
_HOLE
 10
440.890
 20
497.000
 41
0.800
 42
0.800
  0
INSERT
  8
_DRILL
  2
_HOLE
 10
440.890
 20
492.500
 41
0.800
 42
0.800
  0
INSERT
  8
_DRILL
  2
_HOLE
 10
448.840
 20
492.500
 41
0.800
 42
0.800
  0
INSERT
  8
_DRILL
  2
_HOLE
 10
448.840
 20
497.000
 41
0.800
 42
0.800
  0
INSERT
  8
_DRILL
  2
_HOLE
 10
451.050
 20
497.000
 41
0.800
 42
0.800
  0
INSERT
  8
_DRILL
  2
_HOLE
 10
451.050
 20
492.500
 41
0.800
 42
0.800
  0
INSERT
  8
_DRILL
  2
_HOLE
 10
459.000
 20
492.500
 41
0.800
 42
0.800
  0
INSERT
  8
_DRILL
  2
_HOLE
 10
459.000
 20
497.000
 41
0.800
 42
0.800
  0
INSERT
  8
_DRILL
  2
_HOLE
 10
531.050
 20
497.000
 41
0.800
 42
0.800
  0
INSERT
  8
_DRILL
  2
_HOLE
 10
531.050
 20
492.500
 41
0.800
 42
0.800
  0
INSERT
  8
_DRILL
  2
_HOLE
 10
539.000
 20
492.500
 41
0.800
 42
0.800
  0
INSERT
  8
_DRILL
  2
_HOLE
 10
539.000
 20
497.000
 41
0.800
 42
0.800
  0
INSERT
  8
_DRILL
  2
_HOLE
 10
521.050
 20
497.000
 41
0.800
 42
0.800
  0
INSERT
  8
_DRILL
  2
_HOLE
 10
521.050
 20
492.500
 41
0.800
 42
0.800
  0
INSERT
  8
_DRILL
  2
_HOLE
 10
529.000
 20
492.500
 41
0.800
 42
0.800
  0
INSERT
  8
_DRILL
  2
_HOLE
 10
529.000
 20
497.000
 41
0.800
 42
0.800
  0
INSERT
  8
_DRILL
  2
_HOLE
 10
511.050
 20
497.000
 41
0.800
 42
0.800
  0
INSERT
  8
_DRILL
  2
_HOLE
 10
511.050
 20
492.500
 41
0.800
 42
0.800
  0
INSERT
  8
_DRILL
  2
_HOLE
 10
519.000
 20
492.500
 41
0.800
 42
0.800
  0
INSERT
  8
_DRILL
  2
_HOLE
 10
519.000
 20
497.000
 41
0.800
 42
0.800
  0
INSERT
  8
_DRILL
  2
_HOLE
 10
466.725
 20
477.230
 41
3.900
 42
3.900
  0
INSERT
  8
_DRILL
  2
_HOLE
 10
464.185
 20
494.030
 41
0.900
 42
0.900
  0
INSERT
  8
_DRILL
  2
_HOLE
 10
466.725
 20
494.030
 41
0.900
 42
0.900
  0
INSERT
  8
_DRILL
  2
_HOLE
 10
469.265
 20
494.030
 41
0.900
 42
0.900
  0
INSERT
  8
_DRILL
  2
_HOLE
 10
457.835
 20
455.930
 41
0.889
 42
0.889
  0
INSERT
  8
_DRILL
  2
_HOLE
 10
455.295
 20
455.930
 41
0.889
 42
0.889
  0
INSERT
  8
_DRILL
  2
_HOLE
 10
455.295
 20
458.470
 41
0.889
 42
0.889
  0
INSERT
  8
_DRILL
  2
_HOLE
 10
457.835
 20
458.470
 41
0.889
 42
0.889
  0
INSERT
  8
_DRILL
  2
_HOLE
 10
441.960
 20
447.040
 41
0.889
 42
0.889
  0
INSERT
  8
_DRILL
  2
_HOLE
 10
441.960
 20
449.580
 41
0.889
 42
0.889
  0
INSERT
  8
_DRILL
  2
_HOLE
 10
441.960
 20
452.120
 41
0.889
 42
0.889
  0
INSERT
  8
_DRILL
  2
_HOLE
 10
484.270
 20
447.890
 41
3.200
 42
3.200
  0
INSERT
  8
_DRILL
  2
_HOLE
 10
485.140
 20
461.010
 41
0.889
 42
0.889
  0
INSERT
  8
_DRILL
  2
_HOLE
 10
482.600
 20
461.010
 41
0.889
 42
0.889
  0
INSERT
  8
_DRILL
  2
_HOLE
 10
480.060
 20
461.010
 41
0.889
 42
0.889
  0
INSERT
  8
_DRILL
  2
_HOLE
 10
477.520
 20
461.010
 41
0.889
 42
0.889
  0
INSERT
  8
_DRILL
  2
_HOLE
 10
474.980
 20
461.010
 41
0.889
 42
0.889
  0
INSERT
  8
_DRILL
  2
_HOLE
 10
472.440
 20
461.010
 41
0.889
 42
0.889
  0
INSERT
  8
_DRILL
  2
_HOLE
 10
469.900
 20
461.010
 41
0.889
 42
0.889
  0
INSERT
  8
_DRILL
  2
_HOLE
 10
467.360
 20
461.010
 41
0.889
 42
0.889
  0
INSERT
  8
_DRILL
  2
_HOLE
 10
471.805
 20
484.100
 41
0.800
 42
0.800
  0
INSERT
  8
_DRILL
  2
_HOLE
 10
471.805
 20
475.600
 41
0.800
 42
0.800
  0
INSERT
  8
_DRILL
  2
_HOLE
 10
492.420
 20
479.085
 41
0.800
 42
0.800
  0
INSERT
  8
_DRILL
  2
_HOLE
 10
486.410
 20
473.075
 41
0.800
 42
0.800
  0
INSERT
  8
_DRILL
  2
_HOLE
 10
489.880
 20
480.355
 41
0.800
 42
0.800
  0
INSERT
  8
_DRILL
  2
_HOLE
 10
483.870
 20
474.345
 41
0.800
 42
0.800
  0
INSERT
  8
_DRILL
  2
_HOLE
 10
473.710
 20
484.100
 41
0.800
 42
0.800
  0
INSERT
  8
_DRILL
  2
_HOLE
 10
473.710
 20
475.600
 41
0.800
 42
0.800
  0
INSERT
  8
_DRILL
  2
_HOLE
 10
475.615
 20
484.100
 41
0.800
 42
0.800
  0
INSERT
  8
_DRILL
  2
_HOLE
 10
475.615
 20
475.600
 41
0.800
 42
0.800
  0
INSERT
  8
_DRILL
  2
_HOLE
 10
487.340
 20
481.625
 41
0.800
 42
0.800
  0
INSERT
  8
_DRILL
  2
_HOLE
 10
481.330
 20
475.615
 41
0.800
 42
0.800
  0
INSERT
  8
_DRILL
  2
_HOLE
 10
491.490
 20
496.165
 41
0.700
 42
0.700
  0
INSERT
  8
_DRILL
  2
_HOLE
 10
491.490
 20
494.665
 41
0.700
 42
0.700
  0
INSERT
  8
_DRILL
  2
_HOLE
 10
491.490
 20
493.165
 41
0.700
 42
0.700
  0
INSERT
  8
_DRILL
  2
_HOLE
 10
491.490
 20
491.665
 41
0.700
 42
0.700
  0
INSERT
  8
_DRILL
  2
_HOLE
 10
483.870
 20
496.165
 41
0.700
 42
0.700
  0
INSERT
  8
_DRILL
  2
_HOLE
 10
483.870
 20
494.665
 41
0.700
 42
0.700
  0
INSERT
  8
_DRILL
  2
_HOLE
 10
483.870
 20
493.165
 41
0.700
 42
0.700
  0
INSERT
  8
_DRILL
  2
_HOLE
 10
483.870
 20
491.665
 41
0.700
 42
0.700
  0
INSERT
  8
_DRILL
  2
_HOLE
 10
497.650
 20
494.790
 41
0.700
 42
0.700
  0
INSERT
  8
_DRILL
  2
_HOLE
 10
497.650
 20
492.790
 41
0.700
 42
0.700
  0
INSERT
  8
_DRILL
  2
_HOLE
 10
497.650
 20
496.790
 41
0.700
 42
0.700
  0
INSERT
  8
_DRILL
  2
_HOLE
 10
477.650
 20
494.790
 41
0.700
 42
0.700
  0
INSERT
  8
_DRILL
  2
_HOLE
 10
477.650
 20
496.790
 41
0.700
 42
0.700
  0
INSERT
  8
_DRILL
  2
_HOLE
 10
477.650
 20
478.790
 41
0.700
 42
0.700
  0
INSERT
  8
_DRILL
  2
_HOLE
 10
477.650
 20
480.790
 41
0.700
 42
0.700
  0
INSERT
  8
_DRILL
  2
_HOLE
 10
497.650
 20
480.790
 41
0.700
 42
0.700
  0
INSERT
  8
_DRILL
  2
_HOLE
 10
497.650
 20
478.790
 41
0.700
 42
0.700
  0
INSERT
  8
_DRILL
  2
_HOLE
 10
501.650
 20
449.065
 41
0.800
 42
0.800
  0
INSERT
  8
_DRILL
  2
_HOLE
 10
501.650
 20
456.565
 41
0.800
 42
0.800
  0
INSERT
  8
_DRILL
  2
_HOLE
 10
500.380
 20
462.280
 41
0.813
 42
0.813
  0
INSERT
  8
_DRILL
  2
_HOLE
 10
502.285
 20
462.280
 41
0.813
 42
0.813
  0
INSERT
  8
_DRILL
  2
_HOLE
 10
504.190
 20
462.280
 41
0.813
 42
0.813
  0
INSERT
  8
_DRILL
  2
_HOLE
 10
526.085
 20
450.850
 41
0.800
 42
0.800
  0
INSERT
  8
_DRILL
  2
_HOLE
 10
526.085
 20
446.350
 41
0.800
 42
0.800
  0
INSERT
  8
_DRILL
  2
_HOLE
 10
534.035
 20
446.350
 41
0.800
 42
0.800
  0
INSERT
  8
_DRILL
  2
_HOLE
 10
534.035
 20
450.850
 41
0.800
 42
0.800
  0
INSERT
  8
_DRILL
  2
_HOLE
 10
509.575
 20
450.850
 41
0.800
 42
0.800
  0
INSERT
  8
_DRILL
  2
_HOLE
 10
509.575
 20
446.350
 41
0.800
 42
0.800
  0
INSERT
  8
_DRILL
  2
_HOLE
 10
517.525
 20
446.350
 41
0.800
 42
0.800
  0
INSERT
  8
_DRILL
  2
_HOLE
 10
517.525
 20
450.850
 41
0.800
 42
0.800
  0
INSERT
  8
_DRILL
  2
_HOLE
 10
531.165
 20
457.835
 41
0.800
 42
0.800
  0
INSERT
  8
_DRILL
  2
_HOLE
 10
531.165
 20
453.335
 41
0.800
 42
0.800
  0
INSERT
  8
_DRILL
  2
_HOLE
 10
539.115
 20
453.335
 41
0.800
 42
0.800
  0
INSERT
  8
_DRILL
  2
_HOLE
 10
539.115
 20
457.835
 41
0.800
 42
0.800
  0
INSERT
  8
_DRILL
  2
_HOLE
 10
531.165
 20
468.630
 41
0.800
 42
0.800
  0
INSERT
  8
_DRILL
  2
_HOLE
 10
531.165
 20
464.130
 41
0.800
 42
0.800
  0
INSERT
  8
_DRILL
  2
_HOLE
 10
539.115
 20
464.130
 41
0.800
 42
0.800
  0
INSERT
  8
_DRILL
  2
_HOLE
 10
539.115
 20
468.630
 41
0.800
 42
0.800
  0
INSERT
  8
_DRILL
  2
_HOLE
 10
518.820
 20
473.180
 41
1.000
 42
1.000
  0
INSERT
  8
_DRILL
  2
_HOLE
 10
525.320
 20
473.180
 41
1.000
 42
1.000
  0
INSERT
  8
_DRILL
  2
_HOLE
 10
525.320
 20
468.680
 41
1.000
 42
1.000
  0
INSERT
  8
_DRILL
  2
_HOLE
 10
518.820
 20
468.680
 41
1.000
 42
1.000
  0
INSERT
  8
_DRILL
  2
_HOLE
 10
513.820
 20
463.730
 41
0.889
 42
0.889
  0
INSERT
  8
_DRILL
  2
_HOLE
 10
513.820
 20
461.230
 41
0.889
 42
0.889
  0
INSERT
  8
_DRILL
  2
_HOLE
 10
513.820
 20
458.730
 41
0.889
 42
0.889
  0
INSERT
  8
_DRILL
  2
_HOLE
 10
528.320
 20
466.530
 41
1.200
 42
1.200
  0
INSERT
  8
_DRILL
  2
_HOLE
 10
515.820
 20
466.530
 41
1.200
 42
1.200
  0
INSERT
  8
_DRILL
  2
_HOLE
 10
515.820
 20
455.930
 41
1.200
 42
1.200
  0
INSERT
  8
_DRILL
  2
_HOLE
 10
528.320
 20
455.930
 41
1.200
 42
1.200
  0
INSERT
  8
_DRILL
  2
_HOLE
 10
519.570
 20
452.980
 41
1.000
 42
1.000
  0
INSERT
  8
_DRILL
  2
_HOLE
 10
522.070
 20
452.980
 41
1.000
 42
1.000
  0
INSERT
  8
_DRILL
  2
_HOLE
 10
524.570
 20
452.980
 41
1.000
 42
1.000
  0
INSERT
  8
_DRILL
  2
_HOLE
 10
511.810
 20
457.200
 41
0.889
 42
0.889
  0
INSERT
  8
_DRILL
  2
_HOLE
 10
511.810
 20
459.740
 41
0.889
 42
0.889
  0
INSERT
  8
_DRILL
  2
_HOLE
 10
511.810
 20
462.280
 41
0.889
 42
0.889
  0
INSERT
  8
_DRILL
  2
_HOLE
 10
511.810
 20
464.820
 41
0.889
 42
0.889
  0
INSERT
  8
_DRILL
  2
_HOLE
 10
463.550
 20
447.040
 41
0.889
 42
0.889
  0
INSERT
  8
_DRILL
  2
_HOLE
 10
463.550
 20
449.580
 41
0.889
 42
0.889
  0
INSERT
  8
_DRILL
  2
_HOLE
 10
463.550
 20
452.120
 41
0.889
 42
0.889
  0
INSERT
  8
_DRILL
  2
_HOLE
 10
463.550
 20
454.660
 41
0.889
 42
0.889
  0
INSERT
  8
_DRILL
  2
_HOLE
 10
463.550
 20
457.200
 41
0.889
 42
0.889
  0
INSERT
  8
_DRILL
  2
_HOLE
 10
463.550
 20
459.740
 41
0.889
 42
0.889
  0
INSERT
  8
_DRILL
  2
_HOLE
 10
506.730
 20
467.360
 41
0.889
 42
0.889
  0
INSERT
  8
_DRILL
  2
_HOLE
 10
504.190
 20
467.360
 41
0.889
 42
0.889
  0
INSERT
  8
_DRILL
  2
_HOLE
 10
501.650
 20
467.360
 41
0.889
 42
0.889
  0
INSERT
  8
_DRILL
  2
_HOLE
 10
499.110
 20
467.360
 41
0.889
 42
0.889
  0
INSERT
  8
_DRILL
  2
_HOLE
 10
506.730
 20
469.900
 41
0.889
 42
0.889
  0
INSERT
  8
_DRILL
  2
_HOLE
 10
504.190
 20
469.900
 41
0.889
 42
0.889
  0
INSERT
  8
_DRILL
  2
_HOLE
 10
501.650
 20
469.900
 41
0.889
 42
0.889
  0
INSERT
  8
_DRILL
  2
_HOLE
 10
499.110
 20
469.900
 41
0.889
 42
0.889
  0
INSERT
  8
_DRILL
  2
_HOLE
 10
486.410
 20
469.900
 41
0.889
 42
0.889
  0
INSERT
  8
_DRILL
  2
_HOLE
 10
483.870
 20
469.900
 41
0.889
 42
0.889
  0
INSERT
  8
_DRILL
  2
_HOLE
 10
481.330
 20
469.900
 41
0.889
 42
0.889
  0
INSERT
  8
_DRILL
  2
_HOLE
 10
478.790
 20
469.900
 41
0.889
 42
0.889
  0
INSERT
  8
_DRILL
  2
_HOLE
 10
476.250
 20
469.900
 41
0.889
 42
0.889
  0
INSERT
  8
_DRILL
  2
_HOLE
 10
473.710
 20
467.360
 41
0.889
 42
0.889
  0
INSERT
  8
_DRILL
  2
_HOLE
 10
471.170
 20
467.360
 41
0.889
 42
0.889
  0
INSERT
  8
_DRILL
  2
_HOLE
 10
468.630
 20
467.360
 41
0.889
 42
0.889
  0
INSERT
  8
_DRILL
  2
_HOLE
 10
466.090
 20
467.360
 41
0.889
 42
0.889
  0
INSERT
  8
_DRILL
  2
_HOLE
 10
463.550
 20
467.360
 41
0.889
 42
0.889
  0
INSERT
  8
_DRILL
  2
_HOLE
 10
473.710
 20
469.900
 41
0.889
 42
0.889
  0
INSERT
  8
_DRILL
  2
_HOLE
 10
471.170
 20
469.900
 41
0.889
 42
0.889
  0
INSERT
  8
_DRILL
  2
_HOLE
 10
468.630
 20
469.900
 41
0.889
 42
0.889
  0
INSERT
  8
_DRILL
  2
_HOLE
 10
466.090
 20
469.900
 41
0.889
 42
0.889
  0
INSERT
  8
_DRILL
  2
_HOLE
 10
463.550
 20
469.900
 41
0.889
 42
0.889
  0
INSERT
  8
_DRILL
  2
_HOLE
 10
487.500
 20
488.000
 41
3.000
 42
3.000
  0
INSERT
  8
_DRILL
  2
_HOLE
 10
442.500
 20
488.000
 41
3.000
 42
3.000
  0
INSERT
  8
_DRILL
  2
_HOLE
 10
532.500
 20
488.000
 41
3.000
 42
3.000
  0
INSERT
  8
_DRILL
  2
_HOLE
 10
537.500
 20
447.500
 41
3.000
 42
3.000
  0
INSERT
  8
_DRILL
  2
_HOLE
 10
511.810
 20
454.660
 41
0.889
 42
0.889
  0
ENDSEC
  0
EOF
